<svg width="15" height="15" viewBox="0 0 15 15" fill="none" xmlns="http://www.w3.org/2000/svg">
<path d="M5.20086 0.0421346C2.47265 0.411392 0.348108 2.58884 0.0228326 5.34069C0.00231972 5.52532 -0.0064715 5.85648 0.00525012 6.23453C0.025763 7.03459 0.131258 7.55917 0.412577 8.26837C1.06899 9.93296 2.43163 11.2166 4.13126 11.7734C4.77595 11.9844 5.31515 12.0694 6.0243 12.0694C7.28438 12.0694 8.38621 11.7382 9.42943 11.0378L9.7342 10.8327L11.7591 12.8577C13.3122 14.408 13.8133 14.8945 13.9159 14.9385C14.0976 15.0205 14.4082 15.0205 14.5782 14.9385C14.7217 14.8711 14.9005 14.6864 14.9591 14.5428C15.0206 14.3963 15.0119 14.0739 14.9386 13.9157C14.8946 13.8131 14.4111 13.3149 12.858 11.7587L10.8331 9.73368L11.0206 9.4582C11.551 8.68159 11.9056 7.76138 12.0258 6.83823C12.0815 6.4045 12.0815 5.66013 12.0258 5.23519C11.7532 3.16031 10.417 1.36384 8.51808 0.516894C7.96716 0.270723 7.46313 0.127122 6.83896 0.039204C6.47266 -0.0135471 5.59353 -0.0135471 5.20086 0.0421346ZM6.92687 1.60122C7.84409 1.8005 8.54445 2.18442 9.21552 2.8526C9.63749 3.2746 9.869 3.59404 10.1064 4.08345C11.0763 6.09679 10.4023 8.54971 8.53859 9.78936C7.81478 10.27 7.07632 10.5044 6.19427 10.5367C4.85214 10.5836 3.69756 10.1088 2.74811 9.11825C2.17375 8.51748 1.78694 7.78189 1.59353 6.9115C1.52027 6.58034 1.49976 5.73925 1.55837 5.36999C1.77815 4.0014 2.56936 2.84087 3.78254 2.11994C4.21624 1.86205 4.80819 1.65397 5.37375 1.56019C5.71368 1.50451 6.58401 1.52796 6.92687 1.60122Z" fill="black"/>
</svg>
